<svg xmlns="http://www.w3.org/2000/svg" viewBox="0 0 64 64" role="img" aria-labelledby="title desc">
  <title id="title">MinimaPomoTimer favicon</title>
  <desc id="desc">Simplified MinimaPomoTimer icon for browser tabs.</desc>
  <rect x="4" y="4" width="56" height="56" rx="16" fill="#faf2e9"/>

  <g fill="none" stroke-linecap="round">
    <path d="M15.6 27.4A18.5 18.5 0 0 1 24 14.8" stroke="#f4cfaa" stroke-width="4.8"/>
    <path d="M27.4 13.7A18.5 18.5 0 0 1 46.7 18.4" stroke="#ffb55d" stroke-width="4.8"/>
    <path d="M49.1 20.9A18.5 18.5 0 0 1 51.5 36" stroke="#ff8628" stroke-width="4.8"/>
    <path d="M46.2 43.8A18.5 18.5 0 0 1 18.2 42.3" stroke="#e9cfb6" stroke-width="4.8"/>
    <path d="M14 34.7A18.5 18.5 0 0 1 14.8 30" stroke="#edd7c2" stroke-width="4.8"/>
  </g>

  <circle cx="32" cy="36" r="13.8" fill="#f14632"/>

  <g transform="translate(0 -1)" fill="#57be39">
    <rect x="29.9" y="12.8" width="4.2" height="9.6" rx="2.1"/>
    <path d="M31.8 20c-3.4-3.3-7.2-4.1-10.5-3.5 1.4 3 4.1 5.1 8.5 5.8Z"/>
    <path d="M32 19.8c-2-4.5-.9-7.1 0-8.8 1.1 1.5 2.2 4.1 0 8.8Z"/>
    <path d="M32.2 20c3.4-3.3 7.2-4.1 10.5-3.5-1.4 3-4.1 5.1-8.5 5.8Z"/>
    <path d="M30.8 20.6c-2.5.8-4.3 2.5-5.1 5 .8-.1 3.8-.8 5.6-4.2Z"/>
    <path d="M33.2 20.6c2.5.8 4.3 2.5 5.1 5-.8-.1-3.8-.8-5.6-4.2Z"/>
  </g>

  <g fill="#fffdfa">
    <path d="M33.2 35.4 41.9 26.7c.7-.7 1.8-.7 2.4-.1.6.6.7 1.7.1 2.4L35.6 39c-.6.7-1.6 1-2.5.8l-1.4-.3c-.8-.2-1.2-1.1-.7-1.7l1.5-1.6Z"/>
    <circle cx="32" cy="36" r="3.8"/>
  </g>
</svg>
